<?xml version="1.0" encoding="UTF-8" standalone="no"?>
<svg
   width="63.969227mm"
   height="55.888466mm"
   viewBox="0 0 63.969227 55.888466"
   version="1.1"
   id="svg1799"
   inkscape:version="1.1.2 (b8e25be833, 2022-02-05)"
   sodipodi:docname="logo.svg"
   xmlns:inkscape="http://www.inkscape.org/namespaces/inkscape"
   xmlns:sodipodi="http://sodipodi.sourceforge.net/DTD/sodipodi-0.dtd"
   xmlns="http://www.w3.org/2000/svg"
   xmlns:svg="http://www.w3.org/2000/svg"
   xmlns:rdf="http://www.w3.org/1999/02/22-rdf-syntax-ns#"
   xmlns:cc="http://creativecommons.org/ns#"
   xmlns:dc="http://purl.org/dc/elements/1.1/">
  <defs
     id="defs1793" />
  <sodipodi:namedview
     id="base"
     pagecolor="#ffffff"
     bordercolor="#666666"
     borderopacity="1.0"
     inkscape:pageopacity="0.0"
     inkscape:pageshadow="2"
     inkscape:zoom="1.979899"
     inkscape:cx="152.2805"
     inkscape:cy="97.984796"
     inkscape:document-units="mm"
     inkscape:current-layer="layer1"
     inkscape:document-rotation="0"
     showgrid="false"
     inkscape:window-width="1920"
     inkscape:window-height="1027"
     inkscape:window-x="-8"
     inkscape:window-y="-8"
     inkscape:window-maximized="1"
     fit-margin-top="0"
     fit-margin-left="0"
     fit-margin-right="0"
     fit-margin-bottom="0"
     inkscape:pagecheckerboard="0" />
  <metadata
     id="metadata1796">
    <rdf:RDF>
      <cc:Work
         rdf:about="">
        <dc:format>image/svg+xml</dc:format>
        <dc:type
           rdf:resource="http://purl.org/dc/dcmitype/StillImage" />
      </cc:Work>
    </rdf:RDF>
  </metadata>
  <g
     inkscape:label="Layer 1"
     inkscape:groupmode="layer"
     id="layer1"
     transform="translate(-107.98454,-178.12058)">
    <path
       style="fill:#56b919;fill-opacity:1;fill-rule:evenodd;stroke:none;stroke-width:0.264583"
       d="m 134.42685,197.37058 c 0,-6.54182 5.3149,-11.84615 11.8673,-11.84615 6.55505,0 11.86731,5.30433 11.86731,11.84615 0,6.54448 -5.31226,11.84616 -11.86731,11.84616 -6.5524,0 -11.8673,-5.30168 -11.8673,-11.84616 z"
       id="path1519" />
    <path
       style="fill:none;stroke:#56b919;stroke-width:0.338463px;stroke-linecap:butt;stroke-linejoin:miter;stroke-miterlimit:8;stroke-dasharray:none;stroke-opacity:1"
       d="m 134.42685,197.37058 c 0,-6.54182 5.3149,-11.84615 11.8673,-11.84615 6.55505,0 11.86731,5.30433 11.86731,11.84615 0,6.54448 -5.31226,11.84616 -11.86731,11.84616 -6.5524,0 -11.8673,-5.30168 -11.8673,-11.84616"
       id="path1521" />
    <path
       style="fill:#4285f4;fill-opacity:1;fill-rule:evenodd;stroke:none;stroke-width:0.264583"
       d="m 108.02685,185.88405 c 0,-4.2625 3.62788,-7.72116 8.10192,-7.72116 4.47668,0 8.10192,3.45866 8.10192,7.72116 0,4.26514 -3.62524,7.72115 -8.10192,7.72115 -4.47404,0 -8.10192,-3.45601 -8.10192,-7.72115 z"
       id="path1523" />
    <path
       style="fill:none;stroke:#56b919;stroke-width:0.0846153px;stroke-linecap:butt;stroke-linejoin:miter;stroke-miterlimit:8;stroke-dasharray:none;stroke-opacity:1"
       d="m 108.02685,185.88405 c 0,-4.2625 3.62788,-7.72116 8.10192,-7.72116 4.47668,0 8.10192,3.45866 8.10192,7.72116 0,4.26514 -3.62524,7.72115 -8.10192,7.72115 -4.47404,0 -8.10192,-3.45601 -8.10192,-7.72115"
       id="path1525" />
    <path
       style="fill:#fbbc05;fill-opacity:1;fill-rule:evenodd;stroke:none;stroke-width:0.264583"
       d="m 116.573,219.20135 c 0,-4.25192 3.62788,-7.7 8.10192,-7.7 4.47669,0 8.10193,3.44808 8.10193,7.7 0,4.25457 -3.62524,7.7 -8.10193,7.7 -4.47404,0 -8.10192,-3.44543 -8.10192,-7.7 z"
       id="path1527" />
    <path
       style="fill:none;stroke:#56b919;stroke-width:0.0846153px;stroke-linecap:butt;stroke-linejoin:miter;stroke-miterlimit:8;stroke-dasharray:none;stroke-opacity:1"
       d="m 116.573,219.20135 c 0,-4.25192 3.62788,-7.7 8.10192,-7.7 4.47669,0 8.10193,3.44808 8.10193,7.7 0,4.25457 -3.62524,7.7 -8.10193,7.7 -4.47404,0 -8.10192,-3.44543 -8.10192,-7.7"
       id="path1529" />
    <path
       style="fill:#ea4335;fill-opacity:1;fill-rule:evenodd;stroke:none;stroke-width:0.264583"
       d="m 155.70762,226.24559 c 0,-4.26251 3.62788,-7.72116 8.10192,-7.72116 4.47668,0 8.10192,3.45865 8.10192,7.72116 0,4.26514 -3.62524,7.72115 -8.10192,7.72115 -4.47404,0 -8.10192,-3.45601 -8.10192,-7.72115 z"
       id="path1531" />
    <path
       style="fill:none;stroke:#56b919;stroke-width:0.0846153px;stroke-linecap:butt;stroke-linejoin:miter;stroke-miterlimit:8;stroke-dasharray:none;stroke-opacity:1"
       d="m 155.70762,226.24559 c 0,-4.26251 3.62788,-7.72116 8.10192,-7.72116 4.47668,0 8.10192,3.45865 8.10192,7.72116 0,4.26514 -3.62524,7.72115 -8.10192,7.72115 -4.47404,0 -8.10192,-3.45601 -8.10192,-7.72115"
       id="path1533" />
    <path
       style="fill:none;stroke:#56b919;stroke-width:2.11538px;stroke-linecap:butt;stroke-linejoin:miter;stroke-miterlimit:8;stroke-dasharray:none;stroke-opacity:1"
       d="m 158.16146,197.37058 h 5.65336 v 21.15121"
       id="path1535" />
    <path
       style="fill:none;stroke:#56b919;stroke-width:2.11538px;stroke-linecap:butt;stroke-linejoin:miter;stroke-miterlimit:8;stroke-dasharray:none;stroke-opacity:1"
       d="m 146.29415,209.21674 v 9.97668 h -13.5173"
       id="path1537" />
    <path
       style="fill:none;stroke:#56b919;stroke-width:2.11538px;stroke-linecap:butt;stroke-linejoin:miter;stroke-miterlimit:8;stroke-dasharray:none;stroke-opacity:1"
       d="m 134.44007,197.37323 h -5.10337 v -11.51034 h -5.10601"
       id="path1539" />
    <path
       style="fill:#000000;fill-opacity:1;fill-rule:evenodd;stroke:none;stroke-width:0.264583"
       d="m 141.06915,192.16674 c 0.95986,0 1.73462,1.4887 1.73462,3.32115 0,1.8351 -0.77476,3.32116 -1.73462,3.32116 -0.95721,0 -1.73461,-1.48606 -1.73461,-3.32116 0,-1.83245 0.7774,-3.32115 1.73461,-3.32115 z"
       id="path1541" />
    <path
       style="fill:#000000;fill-opacity:1;fill-rule:evenodd;stroke:none;stroke-width:0.264583"
       d="m 151.13838,192.12443 c 0.95986,0 1.73462,1.4887 1.73462,3.32115 0,1.8351 -0.77476,3.32116 -1.73462,3.32116 -0.95721,0 -1.73461,-1.48606 -1.73461,-3.32116 0,-1.83245 0.7774,-3.32115 1.73461,-3.32115 z"
       id="path1543" />
  </g>
</svg>
